 http://www.scenespeeds.com/



Description

Format : AVI
Format/Info : Audio Video Interleave
File size : 1.37 GiB
Duration : 2h 7mn
Overall bit rate : 1 537 Kbps
Writing application : VirtualDubMod 1.5.4.1 (build 2178/release)
Writing library : VirtualDubMod build 2178/release

Video

ID : 0
Format : MPEG-4 Visual
Format profile : Advanced Simple@L5
Format settings, BVOP : Yes
Format settings, QPel : No
Format settings, GMC : No warppoints
Format settings, Matrix : Custom
Codec ID : XVID
Codec ID/Hint : XviD
Duration : 2h 7mn
Bit rate : 1 399 Kbps
Width : 720 pixels
Height : 288 pixels
Display aspect ratio : 2.500
Frame rate : 23.976 fps
Color space : YUV
Chroma subsampling : 4:2:0
Bit depth : 8 bits
Scan type : Progressive
Bits/(Pixel*Frame) : 0.281
Stream size : 1.25 GiB (91%)
Writing library : XviD 58

Audio

ID : 1
Format : AC-3
Format/Info : Audio Coding 3
Mode extension : CM (complete main)
Codec ID : 2000
Duration : 2h 7mn
Bit rate mode : Constant
Bit rate : 128 Kbps
Channel(s) : 2 channels
Channel positions : Front: L R
Sampling rate : 48.0 KHz
Bit depth : 16 bits
Video delay : 8s 0ms
Stream size : 117 MiB (8%)
Alignment : Split accross interleaves
Interleave, duration : 42 ms (1.00 video frame)
Interleave, preload duration : 500 ms

Genres:Action | Adventure | Fantasy
Country:USA

Jack Sparrow and Barbossa embark on a quest to find the elusive fountain of youth, only to discover that Blackbeard and his daughter are after it too.
 
http://www.iraqpics.net/images/m44l2kwhf0h449gr7p9.png 
http://www.iraqpics.net/images/bjdp3v2frxzt3t2k5xj.png 
http://www.iraqpics.net/images/lmx5kri5d5a1jas4i4.png 

 
http://www.scenespeeds.com/